<?xml version="1.0" encoding="utf-8"?>
<!-- Generator: Adobe Illustrator 15.1.0, SVG Export Plug-In . SVG Version: 6.00 Build 0)  -->
<!DOCTYPE svg PUBLIC "-//W3C//DTD SVG 1.1//EN" "http://www.w3.org/Graphics/SVG/1.1/DTD/svg11.dtd">
<svg version="1.1" id="Layer_1" xmlns="http://www.w3.org/2000/svg" xmlns:xlink="http://www.w3.org/1999/xlink" x="0px" y="0px"
	 width="512px" height="512px" viewBox="0 0 512 512" enable-background="new 0 0 512 512" xml:space="preserve">
<path fill="#52C8B1" d="M234.661,469.332C105.278,469.332,0,364.059,0,234.676S105.278,0.015,234.661,0.015
	c44.991,0,88.763,12.82,126.585,37.097c7.426,4.781,9.602,14.679,4.82,22.124c-4.797,7.445-14.675,9.598-22.12,4.82
	c-32.64-20.972-70.439-32.042-109.286-32.042c-111.743,0-202.662,90.919-202.662,202.662c0,111.738,90.919,202.658,202.662,202.658
	c111.739,0,202.658-90.92,202.658-202.658c0-6.68-0.32-13.292-0.938-19.796c-0.852-8.812,5.59-16.621,14.379-17.472
	c8.831-0.813,16.616,5.59,17.472,14.379c0.723,7.531,1.086,15.167,1.086,22.89C469.317,364.059,364.043,469.332,234.661,469.332z"/>
<path fill="#52C8B1" d="M261.324,288.006c-4.094,0-8.191-1.559-11.305-4.691l-95.997-95.997c-6.25-6.254-6.25-16.386,0-22.636
	c6.25-6.25,16.382-6.25,22.632,0l84.693,84.693L484.676,26.042c6.254-6.25,16.387-6.25,22.637,0c6.25,6.25,6.25,16.382,0,22.632
	l-234.66,234.66C269.516,286.447,265.422,288.006,261.324,288.006z"/>
</svg>
