<svg width="90px"  height="90px"  xmlns="http://www.w3.org/2000/svg" viewBox="0 0 100 100" preserveAspectRatio="xMidYMid" class="lds-eclipse" style="background: none;"><path ng-attr-d="{{config.pathCmd}}" ng-attr-fill="{{config.color}}" stroke="none" d="M10 50A40 40 0 0 0 90 50A40 42 0 0 1 10 50" fill="#F7931E" transform="rotate(22.4755 50 51)"><animateTransform attributeName="transform" type="rotate" calcMode="linear" values="0 50 51;360 50 51" keyTimes="0;1" dur="1s" begin="0s" repeatCount="indefinite"></animateTransform></path><path fill="#F7931E" d="M50,18c-18.2,0-33,14.8-33,33c0,1.5,0.1,3,0.3,4.4c3.1-5.2,21.6-33,54.9-28.4c0.7,0.6,1.4,1.3,2.1,2
	c-0.5,0-31.6,3.2-44.6,47.3c0,0.1-0.1,0.3-0.1,0.4C35.1,81.3,42.2,84,50,84c18.2,0,33-14.8,33-33S68.2,18,50,18z"/></svg>