<svg xmlns="http://www.w3.org/2000/svg" viewBox="0 0 120.9 111.97"><defs><style>.cls-1{fill:#fff;}</style></defs><title>sinSession Timed Out Icon</title><g id="Layer_2" data-name="Layer 2"><g id="Layer_1-2" data-name="Layer 1"><path class="cls-1" d="M64.92,112a55.5,55.5,0,0,1-33.71-11.28,3,3,0,1,1,3.61-4.79A50,50,0,1,0,14.93,56a51,51,0,0,0,.85,9.24,3,3,0,0,1-5.9,1.1A56.75,56.75,0,0,1,8.93,56a56,56,0,1,1,56,56Z"/><path class="cls-1" d="M17.59,79.84c.32-7.45,1.87-17.05,4.68-23.6l-9.84,7.62L0,63.42C6.11,67.1,13,74,17.59,79.84Z"/><path class="cls-1" d="M84,86.66a3,3,0,0,1-2-.77L58.37,64.67a3,3,0,0,1-1-2.24V28.32a3,3,0,0,1,6,0V61.1L86,81.42a3,3,0,0,1-2,5.24Z"/></g></g></svg>