<?xml version="1.0" encoding="utf-8"?>
<!-- Generator: Adobe Illustrator 15.1.0, SVG Export Plug-In . SVG Version: 6.00 Build 0)  -->
<!DOCTYPE svg PUBLIC "-//W3C//DTD SVG 1.1//EN" "http://www.w3.org/Graphics/SVG/1.1/DTD/svg11.dtd">
<svg version="1.1" id="Layer_1" xmlns="http://www.w3.org/2000/svg" xmlns:xlink="http://www.w3.org/1999/xlink" x="0px" y="0px"
	 width="512px" height="512px" viewBox="0 0 512 512" enable-background="new 0 0 512 512" xml:space="preserve">
<path fill="#F49711" d="M186.149,510.316h102.217c34.379,0,66.086-19.789,82.752-51.803l91.137-175.037
	c1.813-3.479,0.949-7.753-2.073-10.249l-9.369-7.757c-10.819-10.057-25.321-15.186-40.055-14.171
	c-15.044,1.104-28.951,8.412-38.394,20.172l-10.73,13.063l-0.13-190.329c-0.017-23.174-18.074-42.027-40.022-42.027
	c-8.611,0-16.009,2.904-23.309,7.83V45.352c0-23.187-17.473-41.852-39.429-41.852h-0.737c-19.952,0-36.523,15.483-39.383,35.729
	c-6.709-5.308-15.011-8.208-23.569-8.237c-21.957-0.004-39.75,18.816-39.75,42.006v42.19c-6.257-4.938-14.657-7.406-23.272-7.406
	h-0.701c-21.899,0-39.766,18.6-39.819,41.726c-0.139,59.979-0.053,165.749,0.037,260.375
	C91.602,465.377,134.04,510.316,186.149,510.316z M108.198,149.549c0.033-13.952,10.412-25.081,23.133-25.081h0.701
	c12.754,0,23.272,10.941,23.272,24.934v109.705c0,4.608,3.736,8.343,8.343,8.343c4.611,0,8.343-3.734,8.343-8.343V72.999
	c0-13.988,10.151-25.374,22.979-25.374c12.758,0,22.906,11.386,22.906,25.374v186.118c0,4.607,3.735,8.343,8.342,8.343
	c4.611,0,8.342-3.735,8.342-8.343V45.364c0-13.992,10.689-25.178,23.448-25.178h0.737c12.754,0,23.134,11.279,23.134,25.265v47.566
	c-0.013,0.419-0.016,0.823-0.016,1.25c0,0.184,0,0.355,0.016,0.534c0,21.142-0.008,44.04-0.013,65.845
	c-0.012,50.574-0.021,94.242,0,98.503c0.017,4.607,3.764,8.331,8.372,8.314c4.606-0.017,8.33-3.764,8.313-8.372
	c-0.017-4.231-0.008-47.892,0-98.445c0-22.343,0.009-45.832,0.013-67.405c0.484-13.529,10.669-24.368,23.125-24.368
	c12.743,0,23.123,11.374,23.131,25.354l0.15,213.601c0.004,3.524,2.216,6.665,5.532,7.85c3.316,1.19,7.019,0.164,9.255-2.558
	l25.505-31.044c6.546-8.204,16.2-13.316,26.664-14.12c10.238-0.676,20.295,2.934,27.762,9.965c0.106,0.099,0.212,0.19,0.322,0.28
	l4.338,3.598l-88.029,169.013c-13.781,26.474-39.818,42.82-67.952,42.82H186.149c-42.919,0-77.871-37.461-77.915-83.764
	C108.145,315.254,108.059,209.5,108.198,149.549z"/>
</svg>
