<!-- Generated by IcoMoon.io -->
<svg version="1.1" xmlns="http://www.w3.org/2000/svg" width="32" height="32" viewBox="0 0 32 32">
<title>other-services</title>
<path d="M6.67 19.087c-1.705-0-3.087-1.382-3.087-3.087s1.382-3.087 3.087-3.087 3.087 1.382 3.087 3.087v0c0 1.705-1.382 3.087-3.087 3.087-0 0-0 0-0.001 0h0zM6.663 14c-1.1 0-1.992 0.892-1.992 1.992s0.892 1.992 1.992 1.992c1.1 0 1.992-0.892 1.992-1.992v0c0-1.1-0.892-1.992-1.992-1.992v0z"></path>
<path d="M16 19.087c-1.705 0-3.087-1.382-3.087-3.087s1.382-3.087 3.087-3.087c1.705 0 3.087 1.382 3.087 3.087v0c0 1.705-1.382 3.087-3.087 3.087v0zM15.992 14c-1.1 0-1.992 0.892-1.992 1.992s0.892 1.992 1.992 1.992c1.1 0 1.992-0.892 1.992-1.992v0c0-1.1-0.892-1.992-1.992-1.992v0z"></path>
<path d="M25.329 19.087c-1.705-0-3.087-1.382-3.087-3.087s1.382-3.087 3.087-3.087 3.087 1.382 3.087 3.087v0c0 1.705-1.382 3.087-3.087 3.087-0 0-0 0-0.001 0h0zM25.322 14c-1.1 0-1.992 0.892-1.992 1.992s0.892 1.992 1.992 1.992c1.1 0 1.992-0.892 1.992-1.992v0c0-1.1-0.892-1.992-1.992-1.992v0z"></path>
</svg>
