<?xml version="1.0" encoding="utf-8"?>
<!-- Generator: Adobe Illustrator 23.0.1, SVG Export Plug-In . SVG Version: 6.00 Build 0)  -->
<svg version="1.1" id="Layer_1" xmlns="http://www.w3.org/2000/svg" xmlns:xlink="http://www.w3.org/1999/xlink" x="0px" y="0px"
	 viewBox="0 0 500 500" style="enable-background:new 0 0 500 500;" xml:space="preserve">
<style type="text/css">
	.st0{fill:#6D3E93;}
	.st1{fill:#FFFFFF;}
	.st2{font-family:'Montserrat-SemiBold';}
	.st3{font-size:23.0627px;}
	.st4{fill:#67308F;}
</style>
<g>
	<path class="st0" d="M422.68,475.79l-347.6-12.4c-4.01-0.14-7.15-3.51-7.01-7.52l3.35-93.94c0.14-4.01,3.51-7.15,7.52-7.01
		l347.6,12.4c4.01,0.14,7.15,3.51,7.01,7.52l-3.35,93.94C430.06,472.8,426.69,475.94,422.68,475.79z"/>
	<text transform="matrix(0.9994 0.0357 -0.0357 0.9994 191.3477 406.0303)"><tspan x="0" y="0" class="st1 st2 st3">Oooppsss!</tspan><tspan x="-88.27" y="21.91" class="st1 st2 st3">Something went wrong...</tspan></text>
	<g>
		<path class="st4" d="M90.83,240.81c0-51.99,0-104.39,0-159.37c24.2-18.01,49.28-36.83,74.61-55.3c2.4-1.75,6.4-1.83,9.66-1.84
			c73.02-0.1,146.03-0.12,219.05-0.06c13,0.01,15.7,2.78,15.71,15.98c0.06,61.78,0.03,123.56,0.03,185.35c0,5.59,0,11.18,0,16.39
			c47.21,45.1,72.91,94.5,35.88,157.58c2.91,17.08-1.63,26.68-13.27,28.53c-9.12,1.45-18.84-6.42-19.63-15.89
			c-0.97-11.6,7.11-18.36,23.33-19.53c30.66-37.63,18.36-98.16-26.09-133.92c0,31.46,0,61.9,0,93.69c-5.52-0.3-9.65-0.53-15.07-0.83
			c0-104.25,0-207.43,0-311.72c-72.15,0-142.97,0-216.04,0c0,22,0,43.74,0,68.07c-25.2-3.11-47.94-5.91-72.69-8.96
			c0,73.95,0,147.35,0,222.06c-5.95-0.34-9.83-0.57-15.2-0.88c0-20.67,0-40.61,0-61.69c-47.07,36.42-57.93,98.46-24.43,138.71
			c2.52-0.9,5.21-2,7.98-2.82c8.58-2.54,16.88,1.18,20.5,9.07c3.84,8.38,0.83,17.72-7.19,22.3c-7.7,4.4-17.78,3.32-21.75-4.6
			c-9.8-19.55-20.89-39.06-26.6-59.91c-9.44-34.5,4.39-64.71,25.31-91.75C72.45,259.74,81.41,251.15,90.83,240.81z M163.83,44.45
			C145.49,58,129.19,70.05,110.44,83.92c19.76,2.53,36.17,4.62,53.39,6.82C163.83,75.09,163.83,61.1,163.83,44.45z"/>
		<path class="st4" d="M328.57,256.05c-26.15-20.51-53.99-35.16-89.32-29.35c-1.59,17.75-2.72,34.81-4.79,51.76
			c-1.24,10.13-4.31,19.92-14.47,25.17c-11.57,5.98-26.64,2.17-32.85-10.19c-5.26-10.45-7.8-22.26-11.54-33.47l-7.19-6.82
			c3.76-4.42,5.53-7.16,7.9-9.18c44.18-37.66,108.71-37.67,152.37-0.11C332.53,247.16,336.66,250.49,328.57,256.05z M209.22,282.43
			c-11.05-12.26-3.13-27.68-8.62-42.2c-4.76,3.03-8.91,5.67-15.07,9.59c3.03,12.28,4.95,24.82,9.53,36.29
			c1.79,4.49,9.75,9.33,14.56,8.99c4.6-0.32,11.66-6.58,12.56-11.22c3.38-17.37,4.68-35.15,7.05-55.29
			c-7.4,2.59-11.75,4.11-15.63,5.46C210.07,250.56,217.01,266.99,209.22,282.43z"/>
		<path class="st4" d="M323.43,147.99c10.33,12.04,10.33,12.04,5.43,18.43c-4.63-3.48-9.28-6.97-13.84-10.4
			c-14.73,9.7-14.73,9.7-20.05,4.49c3.65-3.95,7.32-7.94,11.4-12.36c-4.03-4.3-7.75-8.26-12.45-13.27
			c10.94-9.01,14.18,4.36,21.22,5.25c4.31-3.23,9-6.75,13.65-10.24C334.12,136.35,334.12,136.35,323.43,147.99z"/>
		<path class="st4" d="M180.01,152.76c-3.63-5.93-6.71-10.94-9.79-15.96c1.24-1.07,2.48-2.13,3.72-3.2
			c4.96,3.31,9.91,6.62,15.61,10.43c4.68-3.21,9.71-6.66,14.78-10.14c4.08,7.09,4.08,7.09-5.19,17.35
			c-0.86,6.98,13.87,8.58,5.61,19.36c-5.2-3.7-10.12-7.2-15.37-10.94c-4.48,3.54-8.8,6.95-12.99,10.26
			C170.12,164.99,170.12,164.99,180.01,152.76z"/>
	</g>
</g>
</svg>
