<?xml version="1.0" encoding="utf-8"?>
<!-- Generator: Adobe Illustrator 23.0.1, SVG Export Plug-In . SVG Version: 6.00 Build 0)  -->
<svg version="1.1" id="Layer_1" xmlns="http://www.w3.org/2000/svg" xmlns:xlink="http://www.w3.org/1999/xlink" x="0px" y="0px"
	 viewBox="0 0 500 500" style="enable-background:new 0 0 500 500;" xml:space="preserve">
<style type="text/css">
	.st0{fill:#6D3E93;}
	.st1{fill:#6D3E95;}
</style>
<g>
	<g>
		<path class="st0" d="M250,478.22C124.16,478.22,21.78,375.84,21.78,250S124.16,21.78,250,21.78
			c125.84,0,228.22,102.38,228.22,228.22S375.84,478.22,250,478.22z M250,54.98C142.47,54.98,54.98,142.47,54.98,250
			S142.47,445.02,250,445.02c107.53,0,195.02-87.48,195.02-195.02S357.53,54.98,250,54.98z"/>
	</g>
	<g>
		<g>
			<path class="st1" d="M277.62,128.48c0,16.57-11.44,28.41-27.62,28.41c-16.18,0-27.62-11.84-27.62-28.41s11.44-28.41,27.62-28.41
				C266.18,100.08,277.62,111.91,277.62,128.48z M275.64,188.85v211.07h-51.29V188.85H275.64z"/>
		</g>
	</g>
</g>
</svg>
