<?xml version="1.0" encoding="UTF-8" standalone="no"?>
<!-- Created with Inkscape (http://www.inkscape.org/) -->

<svg
   xmlns:dc="http://purl.org/dc/elements/1.1/"
   xmlns:cc="http://creativecommons.org/ns#"
   xmlns:rdf="http://www.w3.org/1999/02/22-rdf-syntax-ns#"
   xmlns:svg="http://www.w3.org/2000/svg"
   xmlns="http://www.w3.org/2000/svg"
   xmlns:sodipodi="http://sodipodi.sourceforge.net/DTD/sodipodi-0.dtd"
   xmlns:inkscape="http://www.inkscape.org/namespaces/inkscape"
   width="25px"
   height="25px"
   viewBox="0 0 320.1658 511.81383"
   id="svg2"
   version="1.1"
   inkscape:version="0.91 r13725"
   sodipodi:docname="pin_new.svg">
  <defs
     id="defs4" />
  <sodipodi:namedview
     id="base"
     pagecolor="#ffffff"
     bordercolor="#666666"
     borderopacity="1.0"
     inkscape:pageopacity="0.0"
     inkscape:pageshadow="2"
     inkscape:zoom="0.35"
     inkscape:cx="-370.53278"
     inkscape:cy="-208.18619"
     inkscape:document-units="px"
     inkscape:current-layer="layer1"
     showgrid="false"
     inkscape:window-width="1366"
     inkscape:window-height="705"
     inkscape:window-x="-8"
     inkscape:window-y="-8"
     inkscape:window-maximized="1"
     fit-margin-top="0"
     fit-margin-left="0"
     fit-margin-right="0"
     fit-margin-bottom="0" />
  <metadata
     id="metadata7">
    <rdf:RDF>
      <cc:Work
         rdf:about="">
        <dc:format>image/svg+xml</dc:format>
        <dc:type
           rdf:resource="http://purl.org/dc/dcmitype/StillImage" />
        <dc:title></dc:title>
      </cc:Work>
    </rdf:RDF>
  </metadata>
  <g
     inkscape:label="Layer 1"
     inkscape:groupmode="layer"
     id="layer1"
     transform="translate(-185.57102,-122.10133)">
    <g
       id="g4147"
       transform="translate(54.285723,-2.8571429)">
      <path
         style="fill:#e6d3f1"
         d="m 289.57243,635.09986 c -3.04007,-3.80792 -146.12625,-285.57268 -149.17031,-293.7456 -7.9842,-21.43656 -10.82311,-48.47966 -8.12505,-77.39821 4.67293,-50.08569 37.76262,-97.54099 85.13614,-122.09725 23.55806,-12.21142 44.07762,-16.90033 73.95899,-16.90033 30.48562,0 50.42411,4.59976 74.87293,17.27299 28.98181,15.02294 52.99956,39.19133 68.32136,68.74988 5.94921,11.47713 11.50006,26.44824 13.72493,37.01728 3.98035,18.90841 4.19993,50.62029 0.49746,71.84513 -1.69407,9.71146 -7.59939,25.80887 -14.83529,40.43977 -16.69085,33.74867 -139.81938,274.04253 -141.05454,275.27769 -1.68009,1.68009 -1.60914,1.68993 -3.32662,-0.46135 z m 21.2957,-257.49575 c 27.93605,-6.05291 51.66522,-24.13634 64.62599,-49.24991 13.78206,-26.70495 14.03918,-57.99745 0.69915,-85.08789 -5.49221,-11.15337 -10.88221,-18.51759 -19.64725,-26.84352 -11.67579,-11.09086 -25.86364,-19.01458 -41.64744,-23.25953 -7.5719,-2.03641 -9.91745,-2.26252 -23.47,-2.26252 -13.62597,0 -15.87529,0.21954 -23.66157,2.30948 -10.26481,2.75522 -25.33695,10.01275 -33.18783,15.9806 -7.08443,5.38523 -16.67007,15.4227 -21.4491,22.46014 -5.33324,7.85355 -10.95032,20.26057 -13.52577,29.87576 -1.98162,7.3982 -2.26045,10.12455 -2.31238,22.60957 -0.0376,9.04543 0.36418,16.07022 1.1073,19.35947 9.05193,40.06652 39.74331,69.04734 79.69283,75.25122 7.08115,1.09965 25.36931,0.46196 32.77607,-1.14287 z"
         id="path4161"
         inkscape:connector-curvature="0" />
      <path
         style="fill:#cda6e3"
         d="M 283.42569,622.11352 C 257.36657,571.96957 145.57512,351.905 143.15967,345.99599 c -10.54365,-25.79333 -13.93826,-52.36306 -10.47385,-81.97936 3.89703,-33.31473 18.61795,-64.2725 42.49229,-89.36035 35.75335,-37.57064 84.08817,-54.61873 137.23055,-48.40233 33.31473,3.89703 64.2725,18.61795 89.36035,42.49229 14.717,14.00514 24.91567,27.94102 33.75645,46.12619 8.38998,17.25789 12.48919,31.01858 14.60982,49.04398 3.27304,27.82097 0.46137,53.0094 -8.67494,77.71466 -3.58116,9.68374 -148.15141,293.64708 -149.77611,294.18865 -0.53237,0.17746 -4.24872,-5.99034 -8.25854,-13.7062 z m 27.36235,-243.64914 c 18.85514,-4.14018 33.26456,-11.89908 47.10858,-25.36609 20.11134,-19.56367 29.97082,-44.39541 28.74798,-72.40368 -1.25547,-28.75601 -14.91736,-54.63133 -38.17142,-72.2959 -7.95557,-6.04331 -22.96957,-13.25618 -33.38303,-16.03753 -7.76965,-2.07521 -10.06469,-2.29811 -23.66157,-2.29811 -13.59688,0 -15.89192,0.2229 -23.66157,2.29811 -4.73231,1.26396 -12.86329,4.38969 -18.06883,6.94606 -20.06765,9.85495 -34.10412,23.89142 -43.95907,43.95907 -15.3217,31.19959 -12.50574,67.40514 7.49972,96.42598 5.06036,7.34079 17.2401,19.37672 24.66666,24.37542 10.94393,7.36619 26.64137,13.43622 40.18657,15.53969 7.08823,1.10075 25.3915,0.46088 32.69598,-1.14302 z"
         id="path4159"
         inkscape:connector-curvature="0" />
      <path
         style="fill:#bb86d9"
         d="m 229.9085,516.30644 c -85.64962,-167.83452 -85.83453,-168.20535 -89.8102,-180.1147 -11.60636,-34.76756 -11.45263,-69.52839 0.45998,-104.01038 15.92851,-46.10637 53.94555,-83.51209 100.53569,-98.91908 71.74627,-23.72592 149.96443,5.88545 188.49868,71.36072 16.76455,28.48542 24.51197,64.176 20.95622,96.54051 -2.63338,23.96901 -7.46694,37.99652 -25.14095,72.96164 -32.70231,64.69616 -133.58531,261.89413 -133.97934,261.89206 -0.23662,-8.6e-4 -27.92065,-53.8711 -61.52008,-119.71077 z m 70.91492,-135.83713 c 30.53981,-3.13397 57.50495,-20.37896 73.499,-47.00475 9.93586,-16.54055 14.81593,-38.63259 12.69581,-57.47387 -2.77164,-24.63149 -10.95978,-41.62216 -28.41741,-58.96721 -14.35987,-14.26727 -27.63367,-21.62941 -46.90125,-26.01317 -10.05012,-2.2866 -29.59291,-2.45765 -39.06054,-0.34187 -21.32987,4.76669 -36.46031,13.37307 -51.52606,29.30867 -12.04057,12.73574 -19.72001,27.26661 -23.64928,44.74861 -2.12847,9.46989 -2.49682,27.05163 -0.7672,36.61898 5.11084,28.2705 22.00958,52.19853 47.40895,67.12945 9.83651,5.78234 24.97848,10.70995 36.7212,11.95004 9.73045,1.0276 10.40798,1.02913 19.99678,0.0451 z"
         id="path4157"
         inkscape:connector-curvature="0" />
      <path
         style="fill:#ad6ed2"
         d="m 286.62102,626.42756 c -2.21298,-4.40982 -32.09988,-62.99872 -66.41532,-130.19758 -34.31544,-67.19885 -65.76106,-129.00566 -69.87916,-137.34847 -8.57542,-17.37283 -11.85718,-26.79843 -15.68008,-45.035 -2.44698,-11.67297 -2.71449,-14.43987 -2.74769,-28.41959 -0.0385,-16.22979 0.67102,-21.70465 5.24108,-40.43977 13.03803,-53.44975 57.6468,-98.94896 111.2677,-113.4887 16.90759,-4.58463 26.90054,-5.98327 43.02103,-6.02132 15.76079,-0.0372 21.47639,0.71005 40.00956,5.23085 48.17917,11.75237 89.28961,48.12898 108.24435,95.78013 7.63132,19.18468 11.26538,38.01768 11.28996,58.5086 0.0194,16.19014 -0.86956,22.67443 -5.63546,41.10532 -4.55948,17.63258 0.1811,7.96181 -101.31274,206.67781 -28.39493,55.59478 -52.02144,101.21284 -52.50337,101.37349 -0.48193,0.16064 -2.68686,-3.31596 -4.89986,-7.72577 z m 28.18479,-247.92318 c 43.30677,-11.28925 72.98988,-49.28298 72.98988,-93.42547 0,-24.96284 -8.91795,-47.63556 -25.88124,-65.79967 -32.35967,-34.65043 -84.27027,-40.73545 -124.0338,-14.53938 -12.19785,8.0359 -24.49995,21.55967 -31.52404,34.65456 -4.46874,8.33099 -9.17911,22.58088 -10.49358,31.7454 -1.40062,9.76504 -0.5896,27.84518 1.62625,36.25433 5.9261,22.48957 18.28191,41.17646 36.08617,54.57661 12.16367,9.15483 25.974,15.16818 41.70721,18.16033 9.86373,1.87589 29.12846,1.08299 39.52315,-1.62671 z"
         id="path4155"
         inkscape:connector-curvature="0" />
      <path
         style="fill:#a25acc"
         d="m 287.05042,626.42728 c -1.97777,-3.93643 -31.3786,-61.57192 -65.33519,-128.07886 -33.95658,-66.50694 -65.30305,-128.041 -69.65881,-136.74235 -8.74811,-17.47574 -13.59637,-30.86726 -16.36565,-45.204 -1.0055,-5.20555 -2.26163,-10.81979 -2.7914,-12.4761 -1.28989,-4.0328 -1.27694,-33.88267 0.0164,-37.85851 0.53881,-1.65631 1.595,-6.49618 2.3471,-10.75526 7.24537,-41.02999 32.60109,-79.16732 68.52788,-103.07217 16.32076,-10.85947 39.69935,-20.28489 57.95329,-23.36473 4.73231,-0.79844 9.95937,-1.88231 11.61568,-2.4086 3.99884,-1.27061 33.02922,-1.24025 36.99808,0.0387 1.65631,0.53374 6.68977,1.61587 11.18547,2.40473 10.54448,1.85024 28.639,7.75563 38.85872,12.68207 39.22175,18.90695 69.12722,53.30311 82.41796,94.79406 2.90484,9.06831 6.06558,23.14963 6.06558,27.02258 0,1.27295 0.45993,2.77439 1.02206,3.33652 1.36678,1.36679 1.41296,32.95136 0.0544,37.18062 -0.53207,1.65631 -1.79008,7.27055 -2.79559,12.4761 -3.12564,16.18166 -7.62875,27.91547 -20.58589,53.64085 -34.39056,68.27975 -134.27638,262.9889 -135.04473,263.24503 -0.48918,0.16305 -2.50758,-2.92425 -4.48534,-6.86067 z m 22.2533,-246.43506 c 31.0933,-5.56006 58.22625,-27.15519 70.89003,-56.42145 12.62201,-29.16972 10.34223,-62.35239 -6.11282,-88.97336 -22.7805,-36.85428 -65.79668,-54.16106 -107.49696,-43.24944 -33.23351,8.69613 -60.12286,35.62799 -68.84275,68.95157 -9.85439,37.65912 3.91572,77.76307 34.83676,101.45829 22.05339,16.89983 48.732,23.24018 76.72574,18.23439 z"
         id="path4153"
         inkscape:connector-curvature="0" />
      <path
         style="fill:#9748c6"
         d="m 288.36257,628.14666 c -1.26091,-2.51593 -33.5032,-65.75033 -71.64955,-140.52088 -38.14634,-74.77056 -70.82937,-139.52183 -72.62895,-143.89172 -3.79,-9.20318 -8.82228,-28.17014 -9.70295,-36.57104 -0.33426,-3.18855 -0.89416,-5.62035 -1.24421,-5.40401 -0.35006,0.21635 -0.84945,-3.17662 -1.10977,-7.53992 -0.51411,-8.6172 0.16467,-26.77655 0.97075,-25.97047 0.27394,0.27394 0.9748,-2.80424 1.55748,-6.84039 2.32511,-16.10598 7.62678,-32.64254 15.42819,-48.12239 20.6114,-40.89794 59.0427,-71.3782 103.80299,-82.32722 5.79633,-1.41787 13.17811,-2.82515 16.40397,-3.1273 3.22584,-0.30215 5.41889,-0.82518 4.87342,-1.1623 -1.39564,-0.86255 14.68189,-1.52973 24.94912,-1.03533 4.72146,0.22735 8.37691,0.74922 8.12321,1.15971 -0.25369,0.41048 0.75914,0.74633 2.25073,0.74633 1.49159,0 6.6447,0.79121 11.45136,1.75824 32.5958,6.55782 60.62208,21.87798 83.59596,45.69649 19.8944,20.62583 33.31824,44.8832 40.01549,72.30946 1.40859,5.76841 2.81037,12.9212 3.11505,15.8951 0.30469,2.9739 0.83364,5.23424 1.17546,5.02299 0.91499,-0.5655 1.63777,16.81062 1.08479,26.07939 -0.26302,4.40858 -0.74902,7.57744 -1.08,7.0419 -0.33098,-0.53554 -0.85519,1.75284 -1.16491,5.08529 -0.71528,7.69622 -5.60195,26.82862 -9.14025,35.7861 -2.97527,7.53216 -15.90404,33.11578 -94.56614,187.12884 -28.87991,56.5442 -52.89363,102.93586 -53.36381,103.09258 -0.47018,0.15673 -1.88652,-1.77352 -3.14743,-4.28945 z M 304.8216,381.30151 c 30.37149,-4.22428 57.85066,-23.4362 72.52072,-50.7025 14.43811,-26.83519 14.91353,-61.82074 1.21016,-89.05354 -6.19819,-12.31771 -17.9921,-26.31842 -29.30997,-34.7943 -33.62717,-25.18314 -82.00069,-25.18314 -115.62786,0 -7.42275,5.55885 -18.82864,17.58879 -23.39773,24.6779 -22.37877,34.72145 -21.20584,78.669 2.97028,111.29083 5.41575,7.30769 16.90765,18.3055 24.03488,23.00149 20.10444,13.24642 44.29419,18.8216 67.59952,15.58012 z"
         id="path4151"
         inkscape:connector-curvature="0" />
      <path
         style="fill:#3c1454"
         d="M 225.57819,503.75866 C 142.35815,340.73949 145.23796,346.51468 141.49281,335.13321 c -3.68535,-11.19972 -6.39428,-23.76926 -7.42442,-34.44953 -0.62534,-6.48346 -0.76126,-6.92345 -0.99189,-3.21087 -0.19157,3.08393 -0.40722,1.98757 -0.7616,-3.87189 -0.27189,-4.4957 -0.26993,-12.23949 0.004,-17.20841 0.35902,-6.50401 0.57234,-7.70897 0.7616,-4.30211 0.24537,4.41705 0.31116,4.2318 0.98753,-2.78065 5.20754,-53.99084 38.79964,-102.14692 88.11549,-126.31826 16.68847,-8.17958 35.30534,-13.49509 53.75713,-15.34878 6.46164,-0.64915 6.81244,-0.76592 3.01147,-1.00241 -2.99643,-0.18643 -1.75772,-0.41698 4.08148,-0.75964 4.61097,-0.27059 12.35476,-0.27158 17.20842,-0.002 6.55677,0.3639 7.60858,0.55964 4.09251,0.7616 -4.43582,0.2548 -4.26161,0.31723 2.78066,0.99647 61.35567,5.91789 115.20621,49.06015 134.4092,107.68167 3.54869,10.8332 6.2492,23.47008 7.26402,33.99155 0.62633,6.49374 0.76122,6.92934 0.99427,3.21087 0.18793,-2.99868 0.41868,-1.7568 0.76159,4.09896 0.27059,4.62058 0.31988,12.17077 0.10954,16.7782 -0.33581,7.35559 -0.45048,7.85253 -0.94035,4.07504 l -0.55791,-4.3021 -0.13864,4.3021 c -0.36782,11.41412 -4.84395,31.02073 -10.21446,44.74187 -3.10146,7.92397 -146.44132,289.53156 -147.3732,289.53156 -0.28311,0 -29.91626,-57.59441 -65.85142,-127.98758 z M 311.79392,380.5534 c 13.41176,-2.76254 28.55692,-9.7273 39.48376,-18.15731 6.25736,-4.82751 16.5641,-15.75547 20.94691,-22.20946 12.69608,-18.6958 18.90139,-42.93744 16.54721,-64.64316 -2.56139,-23.61607 -12.4751,-44.14414 -29.15434,-60.36918 -11.62206,-11.30556 -23.94344,-18.77575 -38.54238,-23.36741 -10.91513,-3.43302 -17.18104,-4.35306 -29.6465,-4.35306 -12.45107,0 -18.70659,0.91684 -29.6465,4.34514 -14.47544,4.53626 -26.95886,12.10726 -38.54238,23.37533 -30.15034,29.3293 -38.13997,73.9045 -20.0286,111.74229 4.97486,10.39335 9.60285,17.09673 17.53693,25.40123 8.06956,8.44631 15.58277,14.15395 25.21348,19.15418 11.71603,6.08293 20.94626,8.76996 38.15349,11.10695 4.83933,0.65725 20.06291,-0.45682 27.67892,-2.02554 z"
         id="path4149"
         inkscape:connector-curvature="0" />
    </g>
  </g>
</svg>
