<?xml version="1.0" encoding="utf-8"?>
<!-- Generator: Adobe Illustrator 23.0.1, SVG Export Plug-In . SVG Version: 6.00 Build 0)  -->
<svg version="1.1" id="Layer_1" xmlns="http://www.w3.org/2000/svg" xmlns:xlink="http://www.w3.org/1999/xlink" x="0px" y="0px"
	 viewBox="0 0 500 500" style="enable-background:new 0 0 500 500;" xml:space="preserve">
<style type="text/css">
	.st0{fill:#6D3E93;}
	.st1{fill:#FFFFFF;}
</style>
<g>
	<g>
		<g>
			<circle class="st0" cx="248.21" cy="234.05" r="120.22"/>
		</g>
		<g>
			<circle class="st0" cx="388.47" cy="155.34" r="20.78"/>
		</g>
		<g>
			<circle class="st0" cx="327.96" cy="292.9" r="53.97"/>
		</g>
		<g>
			<circle class="st0" cx="179.51" cy="165.08" r="55.7"/>
		</g>
		<g>
			<circle class="st0" cx="354.12" cy="374.63" r="17.17"/>
		</g>
		<g>
			<circle class="st0" cx="420.01" cy="317.72" r="10.76"/>
		</g>
		<g>
			<circle class="st0" cx="108.7" cy="306.96" r="10.76"/>
		</g>
		<g>
			<circle class="st0" cx="84.75" cy="155.34" r="16.02"/>
		</g>
	</g>
	<g>
		<path class="st1" d="M225.88,288.37c-2.31,0-4.52-0.97-6.08-2.67l-38.1-41.36c-3.09-3.36-2.88-8.59,0.48-11.68
			c3.37-3.08,8.59-2.88,11.68,0.48l31.94,34.68l76.67-85.34c3.05-3.39,8.27-3.68,11.68-0.62c3.4,3.05,3.68,8.28,0.62,11.67
			l-82.75,92.1c-1.56,1.73-3.77,2.73-6.1,2.74C225.91,288.37,225.9,288.37,225.88,288.37z"/>
	</g>
</g>
</svg>
